<svg width="22" height="20" viewBox="0 0 22 20" fill="none" xmlns="http://www.w3.org/2000/svg">
<path d="M4 17.1654V17.7779C4 18.264 3.83472 18.6723 3.50417 19.0029C3.17361 19.3334 2.75556 19.4987 2.25 19.4987C1.76389 19.4987 1.35069 19.3286 1.01042 18.9883C0.670139 18.648 0.5 18.2348 0.5 17.7487V8.9987L2.95 1.9987C3.06667 1.6487 3.27569 1.36675 3.57708 1.15286C3.87847 0.938976 4.21389 0.832031 4.58333 0.832031H17.4167C17.7861 0.832031 18.1215 0.938976 18.4229 1.15286C18.7243 1.36675 18.9333 1.6487 19.05 1.9987L21.5 8.9987V17.7779C21.5 18.264 21.3347 18.6723 21.0042 19.0029C20.6736 19.3334 20.2556 19.4987 19.75 19.4987C19.2639 19.4987 18.8507 19.3286 18.5104 18.9883C18.1701 18.648 18 18.2348 18 17.7487V17.1654H4ZM3.76667 6.66536H18.2333L17.0083 3.16536H4.99167L3.76667 6.66536ZM5.75 13.6654C6.23611 13.6654 6.64931 13.4952 6.98958 13.1549C7.32986 12.8147 7.5 12.4015 7.5 11.9154C7.5 11.4293 7.32986 11.0161 6.98958 10.6758C6.64931 10.3355 6.23611 10.1654 5.75 10.1654C5.26389 10.1654 4.85069 10.3355 4.51042 10.6758C4.17014 11.0161 4 11.4293 4 11.9154C4 12.4015 4.17014 12.8147 4.51042 13.1549C4.85069 13.4952 5.26389 13.6654 5.75 13.6654ZM16.25 13.6654C16.7361 13.6654 17.1493 13.4952 17.4896 13.1549C17.8299 12.8147 18 12.4015 18 11.9154C18 11.4293 17.8299 11.0161 17.4896 10.6758C17.1493 10.3355 16.7361 10.1654 16.25 10.1654C15.7639 10.1654 15.3507 10.3355 15.0104 10.6758C14.6701 11.0161 14.5 11.4293 14.5 11.9154C14.5 12.4015 14.6701 12.8147 15.0104 13.1549C15.3507 13.4952 15.7639 13.6654 16.25 13.6654Z" fill="black"/>
</svg>
