<svg width="480" height="480" viewBox="0 0 480 480" fill="none" xmlns="http://www.w3.org/2000/svg">
<path d="M104.159 367.912C104.159 367.912 51.7225 330.572 36.6273 267.013C21.5316 203.454 44.5716 126.389 88.2685 87.4593C131.965 48.5303 210.619 74.7479 245.576 107.322C280.533 139.895 280.533 139.895 280.533 139.895C280.533 139.895 313.901 158.168 357.599 156.579C401.295 154.99 440.224 214.577 450.553 261.452C460.88 308.325 436.252 370.294 436.252 370.294L104.159 367.912Z" fill="#D1EBFA"/>
<path d="M73.3713 374.53C62.6077 366.733 40.3784 346.937 33.2501 312.483C30.2917 298.185 32.2297 284.267 36.4282 271.184C46.9294 311.49 72.2504 340.875 88.5082 356.379H73.3713V374.53ZM441.167 356.379H440.376C444.243 343.916 449.213 324.987 451.205 304.862C452.381 315.352 451.399 326.231 447.969 338.702C446.061 345.643 443.696 351.487 441.167 356.379ZM426.421 207.092C409.065 179.467 384.618 157.528 358.319 157.528C357.749 157.528 357.175 157.539 356.605 157.559C354.783 157.625 352.983 157.657 351.199 157.657C310.187 157.657 279.539 140.875 279.539 140.875C279.539 140.875 279.539 140.875 244.583 108.302C242.688 106.536 240.662 104.786 238.523 103.068C258.114 92.934 281.328 71.2542 315.14 71.2542C319.754 71.2542 324.565 71.6574 329.593 72.5503C378.849 81.2891 426.519 107.507 428.903 164.71C429.712 184.146 428.138 197.162 426.421 207.092Z" fill="#D1EAF9"/>
<path d="M440.375 356.379H371.863C378.517 338.694 385.922 313.805 383.735 295.004C379.947 262.431 361.76 231.446 324.627 207.612C310.555 198.579 288.431 191.942 264.356 190.513C265.826 181.542 265.891 172.083 265.437 167.093C264.643 158.354 260.472 151.203 260.472 151.203C260.472 151.203 252.63 146.755 242.605 146.755C239.572 146.755 236.338 147.163 233.062 148.224C218.96 152.792 213.995 174.64 215.583 186.16C216.037 189.444 216.856 192.265 217.942 194.744C193.669 201.058 171.326 214.454 157.154 237.802C136.347 272.082 137.668 308.105 143.252 333.576V356.379H88.5077C72.2499 340.875 46.9289 311.49 36.4277 271.184C45.76 242.105 66.2616 217.146 69.001 201.255C72.9737 178.215 64.2343 149.614 100.781 127.369C137.326 105.123 202.475 113.068 227.103 107.507C230.801 106.671 234.589 105.103 238.523 103.068C240.661 104.786 242.687 106.536 244.582 108.301C279.539 140.875 279.539 140.875 279.539 140.875C279.539 140.875 310.187 157.657 351.199 157.657C352.982 157.657 354.782 157.625 356.605 157.559C357.175 157.539 357.749 157.528 358.318 157.528C384.617 157.528 409.065 179.467 426.421 207.092C423.086 226.386 419.222 234.03 431.285 254.486C442.388 273.313 449.385 288.619 451.205 304.861C449.213 324.987 444.242 343.916 440.375 356.379Z" fill="#B0D6F2"/>
<path d="M371.864 356.379H305.158C306.267 352.385 308.936 337.709 308.936 337.709C308.936 337.709 286.294 318.31 285.102 315.132C284.307 313.013 284.705 273.753 281.328 255.678C277.951 237.603 273.582 233.962 264.446 229.46C255.003 224.807 241.008 220.455 241.008 220.455C241.008 220.455 243.789 226.878 246.37 241.973C248.954 257.069 251.336 282.492 251.932 299.97C252.473 315.818 252.849 350.115 252.915 356.379H224.829C225.306 351.895 227.181 333.663 226.31 331.75C225.927 330.905 216.657 330.418 205.422 330.135V258.459C205.422 258.459 193.997 257.661 181.564 257.661C169.961 257.661 157.479 258.356 152.589 261.04C142.46 266.602 143.254 285.869 143.254 285.869V333.576C137.669 308.105 136.348 272.082 157.155 237.802C171.327 214.454 193.671 201.058 217.944 194.744C218.052 194.99 218.162 195.234 218.276 195.474C217.479 201.808 215.911 213.658 215.187 214.96C214.195 216.748 214.195 216.748 214.195 216.748L209.229 220.125C209.229 220.125 218.763 233.631 230.481 235.815C232.073 236.113 233.429 236.241 234.586 236.241C241.948 236.241 241.206 231.049 241.206 231.049L239.419 227.275L240.978 213.77C242.2 213.959 243.442 214.062 244.681 214.062C249.828 214.062 254.918 212.303 258.288 207.81C261.356 203.72 263.254 197.254 264.358 190.513C288.433 191.942 310.557 198.579 324.628 207.612C361.761 231.446 379.948 262.431 383.737 295.004C385.923 313.805 378.518 338.694 371.864 356.379Z" fill="#95C3EB"/>
<path d="M417.086 255.744H374.249C371.6 255.744 369.449 253.595 369.449 250.944V229.559C369.449 226.909 371.6 224.759 374.249 224.759H417.086C419.737 224.759 421.886 226.909 421.886 229.559V250.944C421.886 253.595 419.737 255.744 417.086 255.744Z" fill="#599FDC"/>
<path d="M395.667 267.86L402.455 251.771H388.879L395.667 267.86Z" fill="#599FDC"/>
<path d="M395.506 234.931H407.768V236.725L413.779 233.259L407.768 229.793V231.587H395.506V234.931Z" fill="#293D8A"/>
<path d="M413.779 241.982H401.517V240.188L395.506 243.654L401.517 247.119V245.325H413.779V241.982Z" fill="white"/>
<path d="M387.979 245.136L387.395 245.349C387.395 245.349 385.576 243.272 384.631 241.009C383.686 238.747 383.654 235.984 383.654 235.984L384.081 235.806L381.487 229.6C381.025 229.961 380.585 230.426 380.229 231.028C378.762 233.507 378.907 237.313 380.383 241.031C381.859 244.748 383.437 248.064 386.317 250.149C388.016 251.38 389.472 251.595 390.603 251.416L387.979 245.136Z" fill="#293D8A"/>
<path d="M389.842 244.405L389.035 244.698L391.689 251.051C391.989 250.953 392.258 250.832 392.491 250.705C393.177 250.329 393.478 249.505 393.189 248.779L391.803 245.286C391.495 244.511 390.626 244.119 389.842 244.405Z" fill="#293D8A"/>
<path d="M383.513 228.513C383.187 228.63 382.832 228.789 382.475 228.999L385.122 235.337L386.013 234.965C386.787 234.642 387.161 233.761 386.856 232.981L385.464 229.407C385.163 228.632 384.297 228.23 383.513 228.513Z" fill="#293D8A"/>
<path d="M143.253 357.372V285.869C143.253 285.869 142.459 266.602 152.588 261.04C162.718 255.479 205.422 258.459 205.422 258.459V357.372H143.253Z" fill="#3A76C4"/>
<path d="M218.762 191.523C218.762 191.523 216.181 213.173 215.187 214.96C214.195 216.748 214.195 216.748 214.195 216.748L209.229 220.125C209.229 220.125 218.762 233.631 230.481 235.815C242.2 238 241.206 231.049 241.206 231.049L239.419 227.275L241.803 206.618C241.803 206.618 220.55 196.886 218.762 191.523Z" fill="#F57C83"/>
<path d="M203.07 221.913L210.817 218.535C210.817 218.535 215.783 226.679 227.303 231.446C238.823 236.213 239.021 233.433 239.617 231.446C240.213 229.46 239.418 227.275 239.418 227.275L240.27 220.321L244.877 221.856L260.869 351.214L219.755 353.2L203.07 221.913Z" fill="white"/>
<path d="M241.008 220.455C241.008 220.455 243.789 226.878 246.37 241.973C248.954 257.069 251.336 282.492 251.933 299.97C252.528 317.449 252.926 357.372 252.926 357.372C252.926 357.372 304.169 357.372 304.766 357.372C305.361 357.372 308.936 337.709 308.936 337.709C308.936 337.709 286.294 318.31 285.103 315.132C284.308 313.013 284.705 273.753 281.328 255.678C277.951 237.603 273.583 233.962 264.446 229.46C255.004 224.807 241.008 220.455 241.008 220.455Z" fill="#293D8A"/>
<path d="M268.02 334.613C267.755 334.613 267.54 334.398 267.54 334.133C267.54 332.713 267.287 312.537 267.044 293.025C266.799 273.51 266.547 253.331 266.547 251.904C266.547 251.638 266.762 251.424 267.027 251.424C267.292 251.424 267.507 251.638 267.507 251.904C267.507 253.324 267.759 273.5 268.003 293.012C268.247 312.527 268.5 332.706 268.5 334.133C268.5 334.398 268.285 334.613 268.02 334.613Z" fill="#788CBD"/>
<path d="M164.736 329.763L164.34 357.372H224.72C224.72 357.372 227.302 333.934 226.309 331.75C225.316 329.564 164.736 329.763 164.736 329.763Z" fill="#293D8A"/>
<path d="M240.385 218.902C237.763 217.94 234.397 216.348 231.937 214.365C227.627 210.89 224.866 206.75 223.076 202.69C225.068 204.954 227.272 206.914 229.487 208.803C232.292 211.195 236.501 213.074 240.977 213.77L240.385 218.902Z" fill="#945168"/>
<path d="M260.474 151.203C260.474 151.203 264.645 158.354 265.439 167.093C266.234 175.833 265.439 198.276 258.288 207.81C251.138 217.344 236.242 214.563 229.488 208.803C223.291 203.517 217.174 197.68 215.585 186.16C213.996 174.64 218.962 152.792 233.064 148.224C247.165 143.655 260.474 151.203 260.474 151.203Z" fill="#F57C83"/>
<path d="M278.391 344.885C278.391 344.885 277.69 344.885 276.624 344.856C276.375 344.846 276.096 344.856 275.807 344.846C274.781 344.818 273.533 344.79 272.275 344.751C271.997 344.741 271.709 344.731 271.431 344.722C270.183 344.693 269.117 344.846 268.119 344.79H268.09C267.879 344.779 267.571 344.808 267.322 344.818C267.197 344.828 267.082 344.837 267.005 344.828C266.429 344.722 266.314 344.588 265.69 344.31C264.883 343.944 253.967 341.507 245.087 341.563C236.218 341.602 228.259 342.206 226.963 341.122C225.658 340.018 224.871 328.873 232.445 328.142L241.757 331.675C241.757 331.675 263.021 329.151 270.816 334.901C278.631 340.651 278.391 344.885 278.391 344.885Z" fill="#F57C83"/>
<path d="M268.09 344.79C267.879 344.779 267.572 344.808 267.322 344.818C267.13 344.511 266.726 343.954 266.506 343.723C264.106 341.275 258.308 339.691 256.205 339.182C256.013 339.134 255.887 338.942 255.936 338.751C255.975 338.558 256.176 338.443 256.378 338.482C259.44 339.221 265.94 341.113 267.783 344.213C267.84 344.299 267.994 344.597 268.09 344.79Z" fill="#293D8A"/>
<path d="M272.278 344.75C271.999 344.744 271.711 344.736 271.433 344.72C268.812 339.941 264.525 338.569 259.226 336.865L258.913 336.76C258.731 336.699 258.621 336.494 258.684 336.304C258.745 336.123 258.94 336.013 259.14 336.075L259.444 336.179C265.047 337.977 269.555 339.422 272.278 344.75Z" fill="#293D8A"/>
<path d="M276.625 344.856C276.375 344.849 276.097 344.852 275.808 344.845C274.219 341.504 268.959 335.912 262 334.608C261.799 334.574 261.669 334.389 261.703 334.188C261.746 333.996 261.931 333.868 262.123 333.901C269.291 335.247 275.074 341.102 276.625 344.856Z" fill="#293D8A"/>
<path d="M220.351 176.329C220.351 176.329 224.721 174.243 227.799 168.384C230.878 162.525 230.481 157.262 230.481 157.262C230.481 157.262 236.042 156.368 244.384 158.85C252.726 161.333 262.657 164.71 270.999 159.943C279.342 155.175 279.342 147.529 275.269 144.351C270.709 140.792 261.664 142.96 261.664 142.96C261.664 142.96 265.139 139.584 263.253 137.598C261.366 135.612 254.514 138.194 254.514 138.194C254.514 138.194 246.172 131.54 230.382 132.334C214.591 133.129 207.043 144.153 206.149 156.467C205.256 168.782 209.725 181.095 209.725 181.095L220.351 176.329Z" fill="#293D8A"/>
<path d="M252.691 196.587C252.508 196.587 252.317 196.582 252.115 196.573C250.945 196.528 249.476 196.335 248.473 195.708C248.176 195.521 248.288 195.036 248.652 195.036C248.653 195.036 248.653 195.036 248.654 195.036C249.278 195.039 249.888 195.228 250.511 195.275C251.09 195.317 251.675 195.342 252.255 195.369C252.592 195.384 252.991 195.415 253.398 195.415C254.008 195.415 254.631 195.346 255.074 195.052C257.014 193.768 253.244 192.184 252.446 191.597C250.777 190.367 251.113 188.244 251.287 186.422C251.513 184.081 251.491 181.52 252.386 179.314C252.45 179.156 252.615 179.073 252.768 179.073C252.94 179.073 253.099 179.179 253.079 179.408C252.826 182.219 252.176 184.993 252 187.817C251.925 188.992 251.838 190.26 252.89 191.012C253.648 191.556 254.57 191.815 255.321 192.372C255.973 192.855 256.623 193.632 256.507 194.498C256.405 195.268 255.777 195.722 255.129 196.044C254.259 196.476 253.566 196.587 252.691 196.587Z" fill="#945168"/>
<path d="M260.506 185.918C260.209 187.593 258.992 188.776 257.785 188.563C256.579 188.35 255.842 186.819 256.138 185.145C256.434 183.471 257.651 182.287 258.858 182.5C260.064 182.713 260.802 184.244 260.506 185.918Z" fill="#293D8A"/>
<path d="M245.308 184.592C245.039 186.399 243.767 187.705 242.465 187.512C241.163 187.318 240.326 185.697 240.595 183.891C240.864 182.084 242.137 180.777 243.439 180.971C244.739 181.165 245.577 182.786 245.308 184.592Z" fill="#293D8A"/>
<path d="M256.965 179.017C257.894 179.173 258.83 179.013 259.766 179.079C259.992 179.095 260.214 179.128 260.439 179.15C260.599 179.165 260.141 179.102 260.364 179.139L260.507 179.163C260.624 179.184 260.741 179.208 260.856 179.236C261.056 179.285 261.249 179.36 261.448 179.404C261.63 179.443 261.831 179.485 262.014 179.477C262.117 179.463 262.217 179.45 262.32 179.435L262.127 179.471L262.507 179.43C263.04 179.305 263.368 178.688 263.22 178.174C263.176 178.026 263.111 177.892 263.017 177.77L262.895 177.615L263.007 177.744L262.885 177.581C262.832 177.492 262.762 177.421 262.672 177.368L262.448 177.198C262.202 177.027 261.879 176.927 261.587 176.852C261.033 176.709 260.451 176.636 259.881 176.633C259.312 176.63 258.752 176.69 258.19 176.768C257.695 176.836 257.144 177.005 256.742 177.303C256.431 177.535 256.24 177.831 256.294 178.237C256.339 178.573 256.604 178.955 256.965 179.017Z" fill="#293D8A"/>
<path d="M246.372 176.36C246.246 176.285 246.118 176.219 245.984 176.159C245.872 176.108 245.565 175.947 245.797 176.074L245.542 175.937C245.157 175.743 244.758 175.614 244.342 175.508C243.436 175.277 242.481 175.218 241.552 175.316C240.56 175.421 239.655 175.661 238.796 176.178C238.675 176.252 238.55 176.323 238.449 176.424C238.381 176.51 238.314 176.598 238.249 176.686L238.305 176.6C238.04 176.785 237.886 177.088 237.889 177.409C237.891 177.717 238.051 177.974 238.319 178.123C238.642 178.304 238.95 178.217 239.284 178.132C239.116 178.132 238.948 178.132 238.781 178.132C239.056 178.174 239.25 178.186 239.528 178.124C239.539 178.122 239.796 178.058 239.626 178.093C239.467 178.128 239.897 178.061 239.944 178.054C239.999 178.046 240.297 178.017 239.982 178.047L240.156 178.027C240.305 178.009 240.456 177.99 240.606 177.978C241.261 177.925 241.915 177.896 242.572 177.875C243.181 177.854 243.802 177.85 244.411 177.876C244.673 177.887 244.932 177.896 245.194 177.903C245.34 177.907 245.279 177.93 245.178 177.899L245.341 177.941C245.45 177.971 245.556 178.006 245.661 178.046C246.085 178.208 246.593 177.901 246.75 177.512C246.92 177.087 246.775 176.6 246.372 176.36Z" fill="#293D8A"/>
<path d="M251.087 203.97C251.999 202.138 253.657 200.795 255.575 199.931C253.911 199.762 246.053 199.034 244.071 200.16C241.849 201.421 244.482 206.485 249.074 206.739C249.557 206.766 249.996 206.727 250.414 206.661C250.451 205.737 250.664 204.822 251.087 203.97Z" fill="#293D8A"/>
<path d="M214.789 193.311C214.789 193.311 215.584 196.39 220.152 199.965C224.72 203.54 231.341 206.155 231.341 206.155L231.87 203.838C231.87 203.838 225.018 200.858 221.84 197.581C218.663 194.304 218.265 192.516 218.265 192.516L214.789 193.311Z" fill="#D6DCEB"/>
<path d="M232.666 202.123C236.343 201.952 238.394 204.859 238.651 206.74C238.907 208.622 237.141 210.731 233.008 208.878C227.875 206.577 228.99 202.294 232.666 202.123Z" fill="#293D8A"/>
<path d="M217.67 170.569C217.67 170.569 219.258 159.154 226.906 151.401C241.505 136.605 253.919 137.498 253.919 137.498C253.919 137.498 253.819 135.413 249.152 133.824C244.769 132.332 242.796 133.129 242.796 133.129C242.796 133.129 230.779 134.121 220.65 145.344C210.52 156.566 209.428 170.866 209.428 170.866L217.67 170.569Z" fill="#D6DCEB"/>
<path d="M216.578 169.178C207.014 167.557 201.681 175.038 201.284 182.585C200.887 190.133 206.371 195.871 213.698 195.297C230.184 194.006 228.296 171.165 216.578 169.178Z" fill="white"/>
<path d="M211.814 187.962C209.29 187.962 207.156 186.693 205.936 184.459C204.63 182.066 204.739 179.12 206.216 176.953C206.328 176.791 206.551 176.748 206.716 176.859C206.88 176.971 206.923 177.195 206.811 177.359C205.485 179.304 205.39 181.956 206.568 184.114C207.686 186.162 209.66 187.323 211.998 187.24C214.183 187.181 216.035 186.182 217.213 184.425C218.557 182.419 218.866 179.651 218 177.372C217.141 175.11 214.785 173.568 212.643 173.848C212.449 173.873 212.265 173.736 212.239 173.538C212.212 173.342 212.35 173.161 212.548 173.134C215.054 172.8 217.685 174.513 218.673 177.115C219.619 179.607 219.28 182.632 217.811 184.825C216.499 186.782 214.442 187.894 212.017 187.96L211.814 187.962Z" fill="#7588BB"/>
<path d="M204.858 219.131C204.858 219.131 175.86 226.281 165.73 237.801C155.6 249.321 150.834 306.128 150.635 316.654C150.436 327.181 157.785 331.551 162.155 334.53C166.525 337.51 185.79 342.873 201.282 343.667C216.775 344.461 231.474 343.667 231.474 343.667C231.474 343.667 231.424 340.29 233.806 335.324C236.017 330.719 238.822 329.763 238.822 329.763L225.515 324.996C225.515 324.996 223.185 283.242 219.556 263.027C215.385 239.788 204.858 219.131 204.858 219.131Z" fill="#293D8A"/>
<path d="M252.925 318.325L252.73 318.284C252.487 318.177 252.378 317.893 252.485 317.652C255.203 311.521 258.017 299.486 259.603 291.043L259.733 290.361C260.213 287.877 260.81 284.789 259.619 282.657C259.011 281.569 257.639 279.209 256.319 276.941C254.949 274.586 253.655 272.361 253.296 271.697C252.597 270.4 254.8 266.937 257.988 262.186C258.848 260.901 259.593 259.792 260.027 259.042C261.163 257.076 260.406 255.275 259.53 253.189L259.233 252.471C258.439 250.522 257.536 248.569 256.664 246.681C256.308 245.91 255.951 245.137 255.599 244.36C255.133 243.334 254.665 242.29 254.191 241.234C251.384 234.976 248.482 228.507 244.765 222.256C244.629 222.029 244.704 221.734 244.932 221.599C245.16 221.464 245.454 221.538 245.59 221.767C249.334 228.063 252.248 234.559 255.066 240.84C255.54 241.896 256.007 242.939 256.473 243.965C256.824 244.739 257.179 245.509 257.535 246.278C258.412 248.176 259.319 250.14 260.122 252.109L260.416 252.818C261.309 254.944 262.233 257.144 260.857 259.522C260.407 260.301 259.655 261.422 258.785 262.719C257.123 265.197 253.663 270.354 254.141 271.24C254.492 271.891 255.783 274.11 257.149 276.458C258.472 278.732 259.847 281.098 260.457 282.188C261.82 284.627 261.185 287.907 260.677 290.543L260.546 291.22C259.968 294.295 256.91 310.038 253.363 318.039C253.284 318.22 253.108 318.325 252.925 318.325Z" fill="#788CBD"/>
<path d="M224.621 320.014C224.497 320.014 224.373 319.967 224.28 319.873C222.023 317.598 211.139 298.752 210.329 295.208C209.885 293.268 210.999 288.347 212.076 283.587C212.91 279.9 213.773 276.086 213.527 275.054C213.161 273.512 210.378 271.238 207.686 269.039C204.434 266.384 201.072 263.636 200.421 261.162C199.681 258.35 200.314 240.747 200.732 229.099C200.883 224.911 201.002 221.603 201.001 220.423C201.001 220.158 201.216 219.943 201.481 219.943C201.746 219.943 201.961 220.157 201.961 220.422C201.962 221.62 201.843 224.936 201.691 229.134C201.301 240.021 200.646 258.242 201.35 260.918C201.922 263.09 205.307 265.856 208.293 268.296C211.239 270.702 214.02 272.974 214.461 274.833C214.758 276.081 213.949 279.658 213.012 283.798C212.008 288.236 210.87 293.266 211.265 294.994C212.059 298.469 222.745 316.962 224.962 319.195C225.148 319.384 225.147 319.688 224.959 319.874C224.865 319.967 224.743 320.014 224.621 320.014Z" fill="#788CBD"/>
<path d="M185.592 311.771L185.525 311.767C185.262 311.729 185.079 311.486 185.116 311.224C185.468 308.727 190.979 258.999 191.231 255.191C191.249 254.925 191.478 254.718 191.743 254.744C192.007 254.761 192.207 254.99 192.189 255.254C191.936 259.069 186.42 308.859 186.066 311.359C186.033 311.598 185.827 311.771 185.592 311.771Z" fill="#788CBD"/>
<path d="M225.118 325.277L224.937 325.242C223.716 324.748 218.322 322.928 211.492 320.626C197.709 315.976 178.83 309.611 175.241 307.745C175.006 307.623 174.915 307.333 175.036 307.098C175.158 306.862 175.446 306.768 175.684 306.894C179.208 308.725 198.821 315.339 211.8 319.715C218.644 322.024 224.05 323.846 225.298 324.352C225.544 324.452 225.662 324.732 225.562 324.977C225.486 325.164 225.307 325.277 225.118 325.277Z" fill="#788CBD"/>
<path d="M218.489 345.078C206.358 345.078 182.84 342.891 164.975 336.572C164.724 336.483 164.594 336.209 164.682 335.959C164.769 335.71 165.047 335.578 165.294 335.667C187.864 343.65 219.436 345.013 225.311 343.694C225.569 343.639 225.825 343.8 225.884 344.058C225.942 344.316 225.779 344.574 225.521 344.632C224.249 344.916 221.79 345.078 218.489 345.078Z" fill="#788CBD"/>
<path d="M79.6417 225.83C83.4078 229.142 88.1775 231.265 91.4824 235.095C92.7824 236.603 93.9505 238.207 95.1581 239.787C96.0368 240.937 98.3821 242.845 98.7622 244.29C98.9302 244.927 98.8947 244.065 98.7258 243.426L98.6979 243.347C98.3677 240.42 98.1315 237.481 98.0288 234.537C97.9261 231.6 98.1094 228.652 97.9251 225.72C97.6659 221.583 96.3747 217.578 92.9936 214.987C91.341 213.72 89.2173 212.949 87.6978 211.544C86.2559 210.209 86.8345 208.681 87.6824 207.193C88.4755 205.8 89.4375 204.432 89.7464 202.829C90.0978 201.007 89.4131 199.127 88.4887 197.576C86.5222 194.273 82.1598 190.592 78.0292 191.085C74.5837 191.497 74.1933 195.471 74.2424 198.24C74.2904 200.932 74.5567 203.615 74.5822 206.309C74.6092 209.076 74.1385 211.791 74.0992 214.545C74.0324 219.231 76.1973 222.801 79.6417 225.83Z" fill="#60A6DF"/>
<path d="M114.633 268.82C115.681 266.319 116.884 263.982 118.363 261.707C120.393 258.587 122.644 255.547 124.006 252.053C125.398 248.485 125.193 244.67 125.331 240.913C125.431 238.153 126.251 235.4 126.03 232.632C125.924 231.304 125.159 229.157 123.441 229.377C122.105 229.547 121.311 231.204 120.798 232.261C119.901 234.106 119.28 236.074 118.614 238.01C118.354 238.767 118.106 239.538 117.777 240.269C117.586 240.694 116.979 241.731 116.406 241.59C115.429 241.349 116.315 237.364 116.46 236.658C117.189 233.114 118.286 229.82 118.439 226.173C118.66 220.885 118.249 214.591 113.077 211.699C111.725 210.944 110.012 210.493 108.728 211.624C107.46 212.739 107.102 214.672 106.914 216.263C106.337 221.146 107.486 225.771 109.051 230.365C110.343 234.159 111.883 238.074 111.995 242.131C112.104 246.036 110.072 249.497 109.118 253.186C107.599 259.065 107.913 262.183 107.906 264.086C107.895 266.472 107.983 268.832 108.156 271.209C108.318 273.395 108.507 275.582 108.774 277.758C108.828 278.198 108.878 278.658 108.937 279.118C108.097 277.095 107.803 274.779 107.107 272.746C105.872 269.133 104.435 265.594 103.249 261.964C102.269 258.964 101.343 255.944 100.048 253.06C98.8347 250.353 97.3688 247.494 95.1044 245.508C93.7356 244.308 92.0763 243.607 90.2455 243.621C89.0747 243.63 88.0225 244.035 86.9043 244.33C85.528 244.694 84.4454 244.568 83.3133 243.699C79.6067 240.849 78.4795 235.741 75.7356 232.134C73.6889 229.443 68.833 224.856 65.2622 227.791C63.3681 229.347 62.8458 232.354 62.9451 234.66C63.0699 237.553 64.3341 240.199 65.8397 242.618C67.441 245.19 69.508 247.493 70.9795 250.137C71.8495 251.699 71.9857 253.196 71.8472 254.959C71.7175 256.618 71.5724 258.226 72.1382 259.828C73.8374 264.636 79.1432 263.965 83.2698 264.091C86.1573 264.178 89.2551 264.608 91.9964 265.532C95.1648 266.599 97.2258 268.661 98.3586 271.794C99.1775 274.063 99.6162 276.637 101.16 278.564C101.886 279.47 102.847 280.139 103.904 280.607C105.513 281.317 110.419 281.628 110.456 281.18C110.576 279.68 111.288 278.096 111.733 276.673C112.569 274.003 113.551 271.399 114.633 268.82Z" fill="#60A6DF"/>
<path d="M137.414 267.914C136.987 265.165 137.068 262.135 135.766 259.61C135.673 259.43 135.428 259.384 135.26 259.477C134.326 259.994 134.288 261.501 134.211 262.425C134.086 263.957 134.18 265.493 133.99 267.021C133.66 269.705 133.04 272.472 132.072 275.002C130.979 277.864 128.989 279.487 126.099 280.381C124.243 280.954 122.422 281.454 120.872 282.686C119.484 283.79 118.52 285.311 117.805 286.913C115.876 291.24 114.958 296.077 114.063 300.699C113.461 303.811 112.969 306.938 112.214 310.02C111.458 313.098 110.647 316.162 110.214 319.308C110.141 319.466 110.063 319.624 109.996 319.784C109.798 320.254 110.534 320.509 110.787 320.117C113.771 315.525 117.405 311.404 122.362 308.875C124.601 307.734 127.575 307.497 129.442 305.703C130.863 304.337 131.058 302.254 130.846 300.398C130.566 297.958 129.398 295.951 128.18 293.872C127.511 292.73 126.721 291.507 126.991 290.119C127.246 288.809 128.334 287.848 129.414 287.176C131.475 285.897 133.885 285.321 135.573 283.477C137.14 281.764 138.009 279.633 138.183 277.325C138.414 274.249 137.884 270.952 137.414 267.914Z" fill="#60A6DF"/>
<path d="M96.7423 283.766C94.1104 280.376 90.933 277.452 87.3589 275.078C85.4516 273.811 80.952 271.312 80.0442 275.049C79.5116 277.239 81.6547 279.393 83.0652 280.766C85.185 282.829 87.6368 284.608 89.4252 286.986C87.2107 287.692 84.897 287.83 82.9729 289.36C80.6951 291.174 79.6733 294.674 81.9319 296.894C83.0325 297.976 84.492 298.641 85.8626 299.305C87.6443 300.167 89.4589 300.95 91.2852 301.713C95.2287 303.359 99.222 305.03 102.585 307.729C106.012 310.478 109.235 315.128 109.506 319.614C109.533 320.042 109.37 319.652 109.625 319.456C109.766 319.582 110.236 319.357 110.233 319.107C110.163 312.449 108.967 306.111 106.246 300.014C103.725 294.36 100.544 288.664 96.7423 283.766Z" fill="#60A6DF"/>
<path d="M87.6517 221.795C89.1037 224.809 90.6221 227.753 92.2342 230.692C93.7857 233.521 95.3359 236.329 96.4963 239.347C97.9258 243.063 99.4243 246.724 100.935 250.407C102.506 254.236 103.909 258.137 105.036 262.119C107.234 269.894 108.867 277.897 109.674 285.938C110.085 290.028 110.271 294.141 110.159 298.249C110.071 301.46 109.709 304.636 109.407 307.831C109.093 311.153 108.867 314.516 109.145 317.851C109.378 320.639 109.821 323.953 111.985 325.942C112.407 326.332 113.007 325.846 112.762 325.343C110.191 320.071 110.335 314.322 110.826 308.605C111.098 305.449 111.474 302.31 111.581 299.142C111.716 295.111 111.558 291.072 111.179 287.057C110.433 279.165 108.859 271.367 106.818 263.714C105.771 259.79 104.476 255.943 102.984 252.164C101.487 248.379 99.7603 244.697 98.3107 240.893C95.6899 234.013 91.6946 227.912 88.1565 221.5C87.9728 221.167 87.4901 221.46 87.6517 221.795Z" fill="#3E579E"/>
<path d="M109.793 278.055C110.208 273.045 110.652 268.22 112.341 263.44C113.129 261.211 114.084 259.044 114.844 256.806C115.472 254.956 116.412 252.42 115.928 250.453C115.874 250.234 115.554 250.245 115.494 250.453C115.17 251.577 115.206 252.808 114.974 253.959C114.746 255.08 114.444 256.182 114.095 257.27C113.354 259.586 112.385 261.804 111.546 264.084C109.926 268.486 109.094 273.363 109.448 278.055C109.464 278.277 109.774 278.277 109.793 278.055Z" fill="#3E579E"/>
<path d="M80.758 249.261C82.747 254.066 88.7257 254.343 93.0801 255.419C96.19 256.187 98.4853 258.262 100.134 260.955C101.938 263.901 103.159 267.36 104.162 270.648L104.22 270.633C103.002 264.874 101.257 257.939 95.3204 255.26C90.5631 253.113 84.2942 254.192 81.2515 249.053C81.1019 248.8 80.6377 248.97 80.758 249.261Z" fill="#3E579E"/>
<path d="M106.648 277.295C106.886 277.615 107.103 277.949 107.346 278.262C107.467 278.417 107.59 278.563 107.743 278.688C107.899 278.816 108.082 278.974 108.296 278.97C108.385 278.968 108.447 278.869 108.399 278.79C108.302 278.629 108.124 278.532 107.986 278.41C107.843 278.285 107.698 278.161 107.559 278.031C107.281 277.768 107.027 277.482 106.755 277.213L106.648 277.295Z" fill="#3E579E"/>
<path d="M94.2118 292.537C97.6428 295.353 100.808 298.685 103.322 302.336C104.524 304.081 105.634 305.928 106.64 307.792C107.739 309.829 108.46 311.982 109.321 314.118C109.386 314.28 109.683 314.284 109.66 314.073C109.184 309.554 106.322 305.68 104.03 301.921C102.839 299.968 101.359 298.394 99.7672 296.766C98.1237 295.084 96.4485 293.493 94.5216 292.137C94.2872 291.971 93.9879 292.353 94.2118 292.537Z" fill="#3E579E"/>
<path d="M121.529 287.217C119.877 288.153 119.823 290.764 119.79 292.43C119.728 295.632 120.521 298.639 119.116 301.689C117.846 304.446 115.819 306.747 114.225 309.306C112.733 311.701 111.261 314.764 111.294 317.648C111.295 317.814 111.551 317.909 111.629 317.739C112.23 316.429 112.446 314.942 112.877 313.57C113.36 312.028 114.036 310.627 114.912 309.271C116.446 306.894 118.328 304.73 119.574 302.173C120.885 299.479 120.693 296.81 120.606 293.89C120.551 292.029 120.365 289.038 121.865 287.653C122.101 287.436 121.8 287.065 121.529 287.217Z" fill="#3E579E"/>
<path d="M110.482 317.945C103.826 317.853 91.1484 317.78 91.1484 317.78L94.2857 341.072C94.991 346.311 99.4639 350.221 104.751 350.221H110.217H110.746H116.211C121.499 350.221 125.971 346.311 126.677 341.072L129.814 317.78C129.814 317.78 117.136 317.853 110.482 317.945Z" fill="white"/>
<path d="M432.181 275.143L394.21 350.353L283.514 351.149L317.676 274.083L432.181 275.143Z" fill="#F5F6F9"/>
<path d="M210.045 350.679L210.066 344.66H281.726L314.696 272.361H429.3L432.181 275.143H320.225L285.963 350.619C285.963 350.619 210.045 350.481 210.045 350.679Z" fill="#D1D8E8"/>
<path d="M374.699 316.645C373.448 320.397 366.661 323.294 359.538 323.116C352.416 322.938 347.656 319.753 348.906 316C350.157 312.249 356.944 309.352 364.067 309.531C371.189 309.709 375.95 312.895 374.699 316.645Z" fill="#D1D8E8"/>
<path d="M285.963 351.099L285.764 351.056C285.523 350.946 285.416 350.662 285.525 350.42L319.915 274.663H432.181C432.447 274.663 432.661 274.877 432.661 275.143C432.661 275.408 432.447 275.623 432.181 275.623H320.534L286.4 350.818C286.32 350.993 286.144 351.099 285.963 351.099Z" fill="white"/>
<path d="M73.3711 385.575H205.056V356.379H73.3711V385.575Z" fill="#4F68A9"/>
<path d="M204.305 385.575H441.233V356.379H204.305V385.575Z" fill="#6F83B8"/>
<path d="M73.3711 361.741H204.304V356.379H73.3711V361.741Z" fill="#3D5192"/>
<path d="M441.233 361.741H204.305V356.379H441.233V361.741Z" fill="#5165A1"/>
<path d="M210.817 357.769H67.0156V350.619H210.817V357.769Z" fill="#647AB4"/>
<path d="M446.992 357.769H210.064V350.619H446.992V357.769Z" fill="#8E9EC7"/>
<path d="M171.809 197.431H125.322C122.445 197.431 120.113 195.099 120.113 192.222V169.014C120.113 166.138 122.445 163.805 125.322 163.805H171.809C174.685 163.805 177.018 166.138 177.018 169.014V192.222C177.018 195.099 174.685 197.431 171.809 197.431Z" fill="white"/>
<path d="M190.268 180.618L172.809 173.251V187.985L190.268 180.618Z" fill="white"/>
<path d="M140.754 180.618C140.754 182.394 139.314 183.833 137.538 183.833C135.762 183.833 134.322 182.394 134.322 180.618C134.322 178.841 135.762 177.402 137.538 177.402C139.314 177.402 140.754 178.841 140.754 180.618Z" fill="#293D8A"/>
<path d="M151.784 180.618C151.784 182.394 150.344 183.833 148.568 183.833C146.792 183.833 145.352 182.394 145.352 180.618C145.352 178.841 146.792 177.402 148.568 177.402C150.344 177.402 151.784 178.841 151.784 180.618Z" fill="#293D8A"/>
<path d="M162.811 180.618C162.811 182.394 161.371 183.833 159.595 183.833C157.819 183.833 156.379 182.394 156.379 180.618C156.379 178.841 157.819 177.402 159.595 177.402C161.371 177.402 162.811 178.841 162.811 180.618Z" fill="#293D8A"/>
<path d="M408.479 92.4115H301.158C294.265 92.4115 288.678 97.9987 288.678 104.891V155.805C288.678 162.697 294.265 168.285 301.158 168.285H310.777C311.048 172.9 310.386 179.766 306.532 188.544C318.931 182.824 326.072 174.236 329.801 168.285H408.479C415.371 168.285 420.959 162.697 420.959 155.805V104.891C420.959 97.9987 415.371 92.4115 408.479 92.4115Z" fill="#599FDC"/>
<path d="M362.695 116.677H309.465C308.003 116.677 306.816 115.491 306.816 114.029C306.816 112.566 308.003 111.38 309.465 111.38H362.695C364.158 111.38 365.344 112.566 365.344 114.029C365.344 115.491 364.158 116.677 362.695 116.677Z" fill="white"/>
<path d="M400.864 132.103H308.439C307.543 132.103 306.816 131.377 306.816 130.481C306.816 129.586 307.543 128.859 308.439 128.859H400.864C401.759 128.859 402.486 129.586 402.486 130.481C402.486 131.377 401.759 132.103 400.864 132.103Z" fill="#C3E4F7"/>
<path d="M400.864 141.107H308.439C307.543 141.107 306.816 140.381 306.816 139.485C306.816 138.589 307.543 137.863 308.439 137.863H400.864C401.759 137.863 402.486 138.589 402.486 139.485C402.486 140.381 401.759 141.107 400.864 141.107Z" fill="#C3E4F7"/>
<path d="M380.702 150.708H308.439C307.543 150.708 306.816 149.981 306.816 149.085C306.816 148.189 307.543 147.463 308.439 147.463H380.702C381.598 147.463 382.325 148.189 382.325 149.085C382.325 149.981 381.598 150.708 380.702 150.708Z" fill="#C3E4F7"/>
<path d="M400.137 116.677H374.744C373.282 116.677 372.096 115.491 372.096 114.029C372.096 112.566 373.282 111.38 374.744 111.38H400.137C401.6 111.38 402.785 112.566 402.785 114.029C402.785 115.491 401.6 116.677 400.137 116.677Z" fill="white"/>
<path d="M336.137 233.764H307.305C306.244 233.764 305.385 232.904 305.385 231.844V212.147C305.385 211.087 306.244 210.227 307.305 210.227H336.137C337.198 210.227 338.057 211.087 338.057 212.147V231.844C338.057 232.904 337.198 233.764 336.137 233.764Z" fill="white"/>
<path d="M321.922 225.513C321.76 225.513 321.596 225.457 321.463 225.348L305.771 212.387C305.465 212.133 305.421 211.68 305.675 211.373C305.929 211.067 306.383 211.024 306.688 211.277L321.909 223.848L336.742 210.941C337.042 210.681 337.497 210.712 337.758 211.012C338.019 211.312 337.988 211.766 337.687 212.028L322.394 225.335C322.259 225.453 322.09 225.513 321.922 225.513Z" fill="#647AB4"/>
<path d="M306.23 233.226C306.051 233.226 305.873 233.16 305.733 233.027C305.445 232.753 305.434 232.298 305.708 232.01L316.683 220.472C316.955 220.184 317.413 220.172 317.7 220.447C317.989 220.721 318 221.176 317.726 221.465L306.751 233.002C306.61 233.151 306.42 233.226 306.23 233.226Z" fill="#647AB4"/>
<path d="M337.215 232.804C337.03 232.804 336.846 232.734 336.705 232.593L325.774 221.632C325.494 221.351 325.494 220.894 325.776 220.614C326.059 220.333 326.515 220.334 326.795 220.615L337.725 231.575C338.006 231.857 338.006 232.313 337.724 232.594C337.582 232.734 337.399 232.804 337.215 232.804Z" fill="#647AB4"/>
<path d="M330 215C330 219.97 325.971 224 321 224C316.029 224 312 219.97 312 215C312 210.03 316.029 206 321 206C325.971 206 330 210.03 330 215Z" fill="#F1494A"/>
<path d="M319.233 214.46L319.203 214.28C319.45 214.38 319.667 214.52 319.853 214.7C320.04 214.873 320.183 215.07 320.283 215.29C320.39 215.51 320.443 215.74 320.443 215.98C320.443 216.353 320.34 216.697 320.133 217.01C319.933 217.317 319.66 217.563 319.313 217.75C318.973 217.93 318.593 218.02 318.173 218.02C317.747 218.02 317.36 217.93 317.013 217.75C316.673 217.563 316.4 217.317 316.193 217.01C315.993 216.697 315.893 216.353 315.893 215.98C315.893 215.68 315.957 215.417 316.083 215.19C316.21 214.963 316.37 214.773 316.563 214.62C316.757 214.467 316.953 214.34 317.153 214.24L317.083 214.46C316.917 214.387 316.753 214.287 316.593 214.16C316.44 214.027 316.313 213.86 316.213 213.66C316.113 213.46 316.063 213.23 316.063 212.97C316.063 212.603 316.157 212.273 316.343 211.98C316.53 211.68 316.783 211.443 317.103 211.27C317.423 211.09 317.78 211 318.173 211C318.567 211 318.92 211.09 319.233 211.27C319.547 211.443 319.797 211.68 319.983 211.98C320.17 212.273 320.263 212.603 320.263 212.97C320.263 213.25 320.21 213.49 320.103 213.69C319.997 213.883 319.863 214.043 319.703 214.17C319.543 214.297 319.387 214.393 319.233 214.46ZM317.063 212.99C317.063 213.197 317.113 213.38 317.213 213.54C317.313 213.7 317.447 213.827 317.613 213.92C317.78 214.013 317.967 214.06 318.173 214.06C318.373 214.06 318.557 214.013 318.723 213.92C318.89 213.827 319.02 213.7 319.113 213.54C319.213 213.38 319.263 213.197 319.263 212.99C319.263 212.677 319.16 212.42 318.953 212.22C318.747 212.02 318.487 211.92 318.173 211.92C317.847 211.92 317.58 212.02 317.373 212.22C317.167 212.42 317.063 212.677 317.063 212.99ZM318.173 217.1C318.533 217.1 318.833 216.993 319.073 216.78C319.32 216.56 319.443 216.29 319.443 215.97C319.443 215.75 319.387 215.553 319.273 215.38C319.16 215.207 319.007 215.07 318.813 214.97C318.62 214.87 318.407 214.82 318.173 214.82C317.94 214.82 317.727 214.87 317.533 214.97C317.34 215.07 317.187 215.207 317.073 215.38C316.96 215.553 316.903 215.75 316.903 215.97C316.903 216.29 317.023 216.56 317.263 216.78C317.503 216.993 317.807 217.1 318.173 217.1ZM323.283 218.07C323.023 218.07 322.753 218.03 322.473 217.95C322.199 217.87 321.966 217.75 321.773 217.59C321.699 217.53 321.643 217.453 321.603 217.36C321.563 217.267 321.543 217.177 321.543 217.09C321.543 216.997 321.583 216.907 321.663 216.82C321.749 216.727 321.866 216.68 322.013 216.68C322.119 216.68 322.243 216.733 322.383 216.84C322.516 216.927 322.656 217 322.803 217.06C322.956 217.12 323.113 217.15 323.273 217.15C323.619 217.15 323.919 217.087 324.173 216.96C324.426 216.833 324.619 216.657 324.753 216.43C324.893 216.197 324.963 215.927 324.963 215.62C324.963 215.333 324.899 215.09 324.773 214.89C324.646 214.683 324.473 214.523 324.253 214.41C324.039 214.297 323.799 214.24 323.533 214.24C323.313 214.24 323.119 214.277 322.953 214.35C322.786 214.417 322.636 214.487 322.503 214.56C322.369 214.627 322.246 214.66 322.133 214.66C321.959 214.66 321.829 214.623 321.743 214.55C321.656 214.47 321.599 214.377 321.573 214.27C321.553 214.157 321.549 214.053 321.563 213.96L321.913 211.45C321.933 211.337 321.986 211.243 322.073 211.17C322.166 211.09 322.279 211.05 322.413 211.05H325.343C325.476 211.05 325.586 211.097 325.673 211.19C325.766 211.277 325.813 211.387 325.813 211.52C325.813 211.653 325.766 211.763 325.673 211.85C325.586 211.937 325.476 211.98 325.343 211.98H322.663L322.773 211.89L322.453 214.04L322.303 213.74C322.363 213.673 322.463 213.61 322.603 213.55C322.749 213.483 322.913 213.43 323.093 213.39C323.279 213.343 323.466 213.32 323.653 213.32C324.093 213.32 324.486 213.42 324.833 213.62C325.186 213.813 325.463 214.083 325.663 214.43C325.863 214.777 325.963 215.17 325.963 215.61C325.963 216.103 325.853 216.537 325.633 216.91C325.413 217.277 325.103 217.563 324.703 217.77C324.303 217.97 323.829 218.07 323.283 218.07Z" fill="white"/>
<path d="M436.308 205.953H380.031C377.911 205.953 376.191 204.233 376.191 202.113V193.308C376.191 191.187 377.911 189.468 380.031 189.468H436.308C438.428 189.468 440.148 191.187 440.148 193.308V202.113C440.148 204.233 438.428 205.953 436.308 205.953Z" fill="#293D8A"/>
<path d="M384.095 202.033C383.842 202.033 383.64 201.944 383.486 201.763C383.332 201.584 383.265 201.358 383.284 201.088L383.526 198.953L383.5 198.846L383.365 198.873L381.608 200.142C381.392 200.304 381.167 200.364 380.932 200.317C380.699 200.273 380.51 200.133 380.366 199.899C380.204 199.611 380.172 199.358 380.271 199.142C380.369 198.926 380.537 198.774 380.77 198.684L382.743 197.792L382.825 197.711L382.743 197.629L380.77 196.738C380.519 196.63 380.356 196.459 380.285 196.225C380.212 195.991 380.24 195.756 380.366 195.522C380.51 195.288 380.699 195.149 380.932 195.103C381.167 195.059 381.392 195.108 381.608 195.252L383.365 196.549L383.5 196.575L383.526 196.468L383.284 194.333C383.265 194.063 383.337 193.837 383.5 193.658C383.663 193.477 383.879 193.388 384.148 193.388C384.401 193.388 384.607 193.477 384.77 193.658C384.932 193.837 384.995 194.063 384.959 194.333L384.716 196.468L384.743 196.575L384.879 196.549L386.635 195.279C386.85 195.116 387.08 195.059 387.324 195.103C387.566 195.149 387.75 195.288 387.877 195.522C388.039 195.81 388.071 196.063 387.97 196.279C387.872 196.495 387.705 196.648 387.471 196.738L385.499 197.629L385.419 197.711L385.499 197.792L387.471 198.684C387.724 198.791 387.891 198.963 387.97 199.196C388.052 199.431 388.021 199.666 387.877 199.899C387.75 200.133 387.566 200.273 387.324 200.317C387.08 200.364 386.85 200.313 386.635 200.17L384.879 198.873L384.743 198.846L384.716 198.953L384.959 201.088C384.995 201.358 384.927 201.584 384.757 201.763C384.584 201.944 384.364 202.033 384.095 202.033Z" fill="white"/>
<path d="M395.734 202.033C395.483 202.033 395.28 201.944 395.127 201.763C394.973 201.584 394.906 201.358 394.924 201.088L395.167 198.953L395.14 198.846L395.006 198.873L393.249 200.142C393.033 200.304 392.807 200.364 392.573 200.317C392.34 200.273 392.151 200.133 392.007 199.899C391.844 199.611 391.813 199.358 391.912 199.142C392.01 198.926 392.177 198.774 392.411 198.684L394.384 197.792L394.465 197.711L394.384 197.629L392.411 196.738C392.159 196.63 391.997 196.459 391.925 196.225C391.853 195.991 391.881 195.756 392.007 195.522C392.151 195.288 392.34 195.149 392.573 195.103C392.807 195.059 393.033 195.108 393.249 195.252L395.006 196.549L395.14 196.575L395.167 196.468L394.924 194.333C394.906 194.063 394.978 193.837 395.14 193.658C395.302 193.477 395.518 193.388 395.789 193.388C396.042 193.388 396.248 193.477 396.41 193.658C396.572 193.837 396.636 194.063 396.599 194.333L396.356 196.468L396.383 196.575L396.519 196.549L398.275 195.279C398.49 195.116 398.721 195.059 398.964 195.103C399.207 195.149 399.391 195.288 399.518 195.522C399.679 195.81 399.711 196.063 399.611 196.279C399.513 196.495 399.346 196.648 399.112 196.738L397.14 197.629L397.059 197.711L397.14 197.792L399.112 198.684C399.364 198.791 399.531 198.963 399.611 199.196C399.692 199.431 399.662 199.666 399.518 199.899C399.391 200.133 399.207 200.273 398.964 200.317C398.721 200.364 398.49 200.313 398.275 200.17L396.519 198.873L396.383 198.846L396.356 198.953L396.599 201.088C396.636 201.358 396.568 201.584 396.397 201.763C396.225 201.944 396.005 202.033 395.734 202.033Z" fill="white"/>
<path d="M407.374 202.033C407.122 202.033 406.919 201.944 406.766 201.763C406.611 201.584 406.544 201.358 406.563 201.088L406.806 198.953L406.779 198.846L406.645 198.873L404.887 200.142C404.671 200.304 404.446 200.364 404.212 200.317C403.978 200.273 403.789 200.133 403.646 199.899C403.483 199.611 403.451 199.358 403.551 199.142C403.649 198.926 403.816 198.774 404.05 198.684L406.023 197.792L406.104 197.711L406.023 197.629L404.05 196.738C403.799 196.63 403.635 196.459 403.564 196.225C403.492 195.991 403.52 195.756 403.646 195.522C403.789 195.288 403.978 195.149 404.212 195.103C404.446 195.059 404.671 195.108 404.887 195.252L406.645 196.549L406.779 196.575L406.806 196.468L406.563 194.333C406.544 194.063 406.617 193.837 406.779 193.658C406.942 193.477 407.158 193.388 407.428 193.388C407.681 193.388 407.886 193.477 408.049 193.658C408.212 193.837 408.275 194.063 408.238 194.333L407.996 196.468L408.023 196.575L408.158 196.549L409.914 195.279C410.129 195.116 410.359 195.059 410.603 195.103C410.846 195.149 411.03 195.288 411.157 195.522C411.318 195.81 411.35 196.063 411.25 196.279C411.152 196.495 410.984 196.648 410.751 196.738L408.779 197.629L408.698 197.711L408.779 197.792L410.751 198.684C411.003 198.791 411.17 198.963 411.25 199.196C411.331 199.431 411.3 199.666 411.157 199.899C411.03 200.133 410.846 200.273 410.603 200.317C410.359 200.364 410.129 200.313 409.914 200.17L408.158 198.873L408.023 198.846L407.996 198.953L408.238 201.088C408.275 201.358 408.206 201.584 408.036 201.763C407.864 201.944 407.643 202.033 407.374 202.033Z" fill="white"/>
<path d="M419.014 202.033C418.762 202.033 418.56 201.944 418.407 201.763C418.252 201.584 418.185 201.358 418.204 201.088L418.447 198.953L418.419 198.846L418.285 198.873L416.528 200.142C416.312 200.304 416.087 200.364 415.852 200.317C415.619 200.273 415.43 200.133 415.286 199.899C415.124 199.611 415.092 199.358 415.191 199.142C415.289 198.926 415.457 198.774 415.69 198.684L417.663 197.792L417.745 197.711L417.663 197.629L415.69 196.738C415.439 196.63 415.276 196.459 415.205 196.225C415.132 195.991 415.16 195.756 415.286 195.522C415.43 195.288 415.619 195.149 415.852 195.103C416.087 195.059 416.312 195.108 416.528 195.252L418.285 196.549L418.419 196.575L418.447 196.468L418.204 194.333C418.185 194.063 418.257 193.837 418.419 193.658C418.583 193.477 418.799 193.388 419.068 193.388C419.321 193.388 419.527 193.477 419.689 193.658C419.852 193.837 419.915 194.063 419.879 194.333L419.636 196.468L419.663 196.575L419.799 196.549L421.555 195.279C421.77 195.116 422 195.059 422.244 195.103C422.486 195.149 422.67 195.288 422.797 195.522C422.959 195.81 422.991 196.063 422.89 196.279C422.792 196.495 422.625 196.648 422.391 196.738L420.419 197.629L420.338 197.711L420.419 197.792L422.391 198.684C422.644 198.791 422.81 198.963 422.89 199.196C422.972 199.431 422.941 199.666 422.797 199.899C422.67 200.133 422.486 200.273 422.244 200.317C422 200.364 421.77 200.313 421.555 200.17L419.799 198.873L419.663 198.846L419.636 198.953L419.879 201.088C419.915 201.358 419.847 201.584 419.677 201.763C419.504 201.944 419.284 202.033 419.014 202.033Z" fill="white"/>
<path d="M430.652 202.033C430.401 202.033 430.198 201.944 430.046 201.763C429.891 201.584 429.824 201.358 429.842 201.088L430.086 198.953L430.058 198.846L429.924 198.873L428.167 200.142C427.951 200.304 427.725 200.364 427.491 200.317C427.258 200.273 427.069 200.133 426.925 199.899C426.762 199.611 426.731 199.358 426.83 199.142C426.928 198.926 427.095 198.774 427.329 198.684L429.302 197.792L429.383 197.711L429.302 197.629L427.329 196.738C427.077 196.63 426.915 196.459 426.843 196.225C426.771 195.991 426.799 195.756 426.925 195.522C427.069 195.288 427.258 195.149 427.491 195.103C427.725 195.059 427.951 195.108 428.167 195.252L429.924 196.549L430.058 196.575L430.086 196.468L429.842 194.333C429.824 194.063 429.896 193.837 430.058 193.658C430.22 193.477 430.436 193.388 430.707 193.388C430.96 193.388 431.166 193.477 431.328 193.658C431.49 193.837 431.554 194.063 431.517 194.333L431.274 196.468L431.301 196.575L431.437 196.549L433.193 195.279C433.408 195.116 433.639 195.059 433.882 195.103C434.125 195.149 434.309 195.288 434.436 195.522C434.597 195.81 434.629 196.063 434.529 196.279C434.431 196.495 434.264 196.648 434.03 196.738L432.058 197.629L431.976 197.711L432.058 197.792L434.03 198.684C434.282 198.791 434.449 198.963 434.529 199.196C434.61 199.431 434.58 199.666 434.436 199.899C434.309 200.133 434.125 200.273 433.882 200.317C433.639 200.364 433.408 200.313 433.193 200.17L431.437 198.873L431.301 198.846L431.274 198.953L431.517 201.088C431.554 201.358 431.486 201.584 431.315 201.763C431.143 201.944 430.923 202.033 430.652 202.033Z" fill="#5DA4DE"/>
</svg>
