<svg width="24" height="24" viewBox="0 0 24 24" fill="none" xmlns="http://www.w3.org/2000/svg">
<path d="M23.3455 14.918C23.4427 15.2485 23.4038 15.5256 23.2288 15.7492C23.0538 15.9728 22.8011 16.0846 22.4705 16.0846C22.315 16.0846 22.1545 16.0409 21.9893 15.9534C21.824 15.8659 21.6927 15.7638 21.5955 15.6471L20.1663 13.7513L13.7497 13.7513L16.2288 22.1805C16.3455 22.5888 16.2969 22.9388 16.083 23.2305C15.8691 23.5221 15.5386 23.668 15.0913 23.668C14.8775 23.668 14.6587 23.6048 14.4351 23.4784C14.2115 23.352 14.0511 23.1916 13.9538 22.9971L8.49967 13.7513L2.08301 13.7513C1.57745 13.7513 1.1594 13.586 0.828841 13.2555C0.498285 12.9249 0.333007 12.5069 0.333007 12.0013C0.333007 11.4957 0.498285 11.0777 0.828841 10.7471C1.1594 10.4166 1.57745 10.2513 2.08301 10.2513L8.49967 10.2513L13.9538 1.00547C14.0511 0.811021 14.2163 0.650606 14.4497 0.524217C14.683 0.397828 14.9066 0.334632 15.1205 0.334632C15.5483 0.334632 15.8691 0.480466 16.083 0.772134C16.2969 1.0638 16.3455 1.4138 16.2288 1.82213L13.7497 10.2513L20.1663 10.2513L21.5955 8.35547C21.6927 8.2388 21.824 8.13672 21.9893 8.04922C22.1545 7.96172 22.315 7.91797 22.4705 7.91797C22.8011 7.91797 23.0538 8.02977 23.2288 8.25338C23.4038 8.47699 23.4427 8.75408 23.3455 9.08463L22.4997 12.0013L23.3455 14.918Z" fill="black" fill-opacity="0.3"/>
</svg>
