<svg width="19" height="24" viewBox="0 0 19 24" fill="none" xmlns="http://www.w3.org/2000/svg">
<path d="M17.0003 23.6654C16.6698 23.6654 16.3927 23.5536 16.1691 23.3299C15.9455 23.1063 15.8337 22.8293 15.8337 22.4987V14.332H14.667C14.0253 14.332 13.476 14.1036 13.0191 13.6466C12.5621 13.1897 12.3337 12.6404 12.3337 11.9987V6.16537C12.3337 4.55148 12.9024 3.17578 14.0399 2.03828C15.1774 0.900781 16.5531 0.332031 18.167 0.332031V22.4987C18.167 22.8293 18.0552 23.1063 17.8316 23.3299C17.608 23.5536 17.3309 23.6654 17.0003 23.6654ZM5.33366 23.6654C5.0031 23.6654 4.72602 23.5536 4.50241 23.3299C4.2788 23.1063 4.16699 22.8293 4.16699 22.4987V12.9904C3.17533 12.7181 2.34408 12.1737 1.67324 11.357C1.00241 10.5404 0.666992 9.58759 0.666992 8.4987V1.4987C0.666992 1.16814 0.778798 0.891059 1.00241 0.667448C1.22602 0.443837 1.5031 0.332031 1.83366 0.332031C2.16421 0.332031 2.4413 0.443837 2.66491 0.667448C2.88852 0.891059 3.00033 1.16814 3.00033 1.4987V8.4987H4.16699V1.4987C4.16699 1.16814 4.2788 0.891059 4.50241 0.667448C4.72602 0.443837 5.0031 0.332031 5.33366 0.332031C5.66421 0.332031 5.9413 0.443837 6.16491 0.667448C6.38852 0.891059 6.50033 1.16814 6.50033 1.4987V8.4987H7.66699V1.4987C7.66699 1.16814 7.7788 0.891059 8.00241 0.667448C8.22602 0.443837 8.5031 0.332031 8.83366 0.332031C9.16421 0.332031 9.4413 0.443837 9.66491 0.667448C9.88852 0.891059 10.0003 1.16814 10.0003 1.4987V8.4987C10.0003 9.58759 9.66491 10.5404 8.99408 11.357C8.32324 12.1737 7.49199 12.7181 6.50033 12.9904V22.4987C6.50033 22.8293 6.38852 23.1063 6.16491 23.3299C5.9413 23.5536 5.66421 23.6654 5.33366 23.6654Z" fill="black"/>
</svg>
