<svg width="30" height="20" viewBox="0 0 30 20" fill="none" xmlns="http://www.w3.org/2000/svg">
<path d="M8.33333 20H1.66667C1.19444 20 0.798611 19.8403 0.479167 19.5208C0.159722 19.2014 0 18.8056 0 18.3333C0 17.8611 0.159722 17.4653 0.479167 17.1458C0.798611 16.8264 1.19444 16.6667 1.66667 16.6667H8.33333C8.80556 16.6667 9.20139 16.8264 9.52083 17.1458C9.84028 17.4653 10 17.8611 10 18.3333C10 18.8056 9.84028 19.2014 9.52083 19.5208C9.20139 19.8403 8.80556 20 8.33333 20ZM28.3333 3.33333H1.66667C1.19444 3.33333 0.798611 3.17361 0.479167 2.85417C0.159722 2.53472 0 2.13889 0 1.66667C0 1.19444 0.159722 0.798611 0.479167 0.479167C0.798611 0.159722 1.19444 0 1.66667 0H28.3333C28.8056 0 29.2014 0.159722 29.5208 0.479167C29.8403 0.798611 30 1.19444 30 1.66667C30 2.13889 29.8403 2.53472 29.5208 2.85417C29.2014 3.17361 28.8056 3.33333 28.3333 3.33333ZM18.3333 11.6667H1.66667C1.19444 11.6667 0.798611 11.5069 0.479167 11.1875C0.159722 10.8681 0 10.4722 0 10C0 9.52778 0.159722 9.13194 0.479167 8.8125C0.798611 8.49306 1.19444 8.33333 1.66667 8.33333H18.3333C18.8056 8.33333 19.2014 8.49306 19.5208 8.8125C19.8403 9.13194 20 9.52778 20 10C20 10.4722 19.8403 10.8681 19.5208 11.1875C19.2014 11.5069 18.8056 11.6667 18.3333 11.6667Z" fill="white"/>
</svg>
