<svg width="20" height="21" viewBox="0 0 20 21" fill="none" xmlns="http://www.w3.org/2000/svg">
<path d="M3.00033 20.4987C2.35866 20.4987 1.80935 20.2702 1.35241 19.8133C0.895464 19.3563 0.666992 18.807 0.666992 18.1654V7.66536C0.666992 7.29592 0.749631 6.94592 0.914909 6.61536C1.08019 6.28481 1.30866 6.01259 1.60033 5.7987L8.60032 0.548698C8.81421 0.393142 9.03782 0.276476 9.27116 0.198698C9.50449 0.12092 9.74755 0.0820312 10.0003 0.0820312C10.2531 0.0820312 10.4962 0.12092 10.7295 0.198698C10.9628 0.276476 11.1864 0.393142 11.4003 0.548698L18.4003 5.7987C18.692 6.01259 18.9205 6.28481 19.0857 6.61536C19.251 6.94592 19.3337 7.29592 19.3337 7.66536V18.1654C19.3337 18.807 19.1052 19.3563 18.6482 19.8133C18.1913 20.2702 17.642 20.4987 17.0003 20.4987H12.3337V12.332H7.66699V20.4987H3.00033Z" fill="black"/>
</svg>
