<svg width="29" height="29" viewBox="0 0 29 29" fill="none" xmlns="http://www.w3.org/2000/svg">
<path d="M14.3414 18.0158C15.4041 18.0158 16.3075 17.6438 17.0514 16.8999C17.7953 16.156 18.1672 15.2527 18.1672 14.19C18.1672 13.1272 17.7953 12.2239 17.0514 11.48C16.3075 10.7361 15.4041 10.3642 14.3414 10.3642C13.2787 10.3642 12.3754 10.7361 11.6315 11.48C10.8876 12.2239 10.5156 13.1272 10.5156 14.19C10.5156 15.2527 10.8876 16.156 11.6315 16.8999C12.3754 17.6438 13.2787 18.0158 14.3414 18.0158ZM14.3414 20.5663C12.5773 20.5663 11.0738 19.9444 9.8308 18.7006C8.58699 17.4576 7.96508 15.9541 7.96508 14.19C7.96508 12.4258 8.58699 10.9219 9.8308 9.67806C11.0738 8.4351 12.5773 7.81362 14.3414 7.81362C16.1055 7.81362 17.6095 8.4351 18.8533 9.67806C20.0963 10.9219 20.7178 12.4258 20.7178 14.19C20.7178 15.9541 20.0963 17.4576 18.8533 18.7006C17.6095 19.9444 16.1055 20.5663 14.3414 20.5663ZM1.58874 15.4652C1.22742 15.4652 0.924755 15.3428 0.680754 15.098C0.435902 14.8539 0.313477 14.5513 0.313477 14.19C0.313477 13.8286 0.435902 13.5255 0.680754 13.2807C0.924755 13.0367 1.22742 12.9147 1.58874 12.9147H4.13928C4.5006 12.9147 4.80369 13.0367 5.04854 13.2807C5.29255 13.5255 5.41455 13.8286 5.41455 14.19C5.41455 14.5513 5.29255 14.8539 5.04854 15.098C4.80369 15.3428 4.5006 15.4652 4.13928 15.4652H1.58874ZM24.5436 15.4652C24.1822 15.4652 23.8796 15.3428 23.6356 15.098C23.3907 14.8539 23.2683 14.5513 23.2683 14.19C23.2683 13.8286 23.3907 13.5255 23.6356 13.2807C23.8796 13.0367 24.1822 12.9147 24.5436 12.9147H27.0941C27.4554 12.9147 27.7581 13.0367 28.0021 13.2807C28.2469 13.5255 28.3694 13.8286 28.3694 14.19C28.3694 14.5513 28.2469 14.8539 28.0021 15.098C27.7581 15.3428 27.4554 15.4652 27.0941 15.4652H24.5436ZM14.3414 5.26309C13.9801 5.26309 13.6774 5.14066 13.4334 4.89581C13.1886 4.65181 13.0662 4.34915 13.0662 3.98782V1.43729C13.0662 1.07596 13.1886 0.772871 13.4334 0.52802C13.6774 0.284018 13.9801 0.162018 14.3414 0.162018C14.7027 0.162018 15.0058 0.284018 15.2507 0.52802C15.4947 0.772871 15.6167 1.07596 15.6167 1.43729V3.98782C15.6167 4.34915 15.4947 4.65181 15.2507 4.89581C15.0058 5.14066 14.7027 5.26309 14.3414 5.26309ZM14.3414 28.2179C13.9801 28.2179 13.6774 28.0955 13.4334 27.8506C13.1886 27.6066 13.0662 27.304 13.0662 26.9426V24.3921C13.0662 24.0308 13.1886 23.7281 13.4334 23.4841C13.6774 23.2393 13.9801 23.1168 14.3414 23.1168C14.7027 23.1168 15.0058 23.2393 15.2507 23.4841C15.4947 23.7281 15.6167 24.0308 15.6167 24.3921V26.9426C15.6167 27.304 15.4947 27.6066 15.2507 27.8506C15.0058 28.0955 14.7027 28.2179 14.3414 28.2179ZM6.24347 7.87739L4.87256 6.53836C4.6175 6.30456 4.49508 6.00699 4.50528 5.64567C4.51633 5.28434 4.63876 4.97615 4.87256 4.7211C5.12761 4.46605 5.4358 4.33852 5.79713 4.33852C6.15845 4.33852 6.45601 4.46605 6.68981 4.7211L8.02885 6.09201C8.26264 6.34707 8.37954 6.64463 8.37954 6.9847C8.37954 7.32477 8.26264 7.62233 8.02885 7.87739C7.79505 8.13244 7.50301 8.25444 7.15274 8.24339C6.80161 8.23319 6.49852 8.11119 6.24347 7.87739ZM21.993 23.6588L20.654 22.2879C20.4202 22.0329 20.3033 21.7302 20.3033 21.3799C20.3033 21.0288 20.4202 20.7363 20.654 20.5025C20.8878 20.2475 21.1803 20.1255 21.5314 20.1365C21.8817 20.1467 22.1843 20.2687 22.4394 20.5025L23.8103 21.8416C24.0653 22.0754 24.1878 22.3729 24.1776 22.7343C24.1665 23.0956 24.0441 23.4038 23.8103 23.6588C23.5552 23.9139 23.247 24.0414 22.8857 24.0414C22.5244 24.0414 22.2268 23.9139 21.993 23.6588ZM20.654 7.87739C20.3989 7.64359 20.2769 7.35113 20.288 7C20.2982 6.64973 20.4202 6.34707 20.654 6.09201L21.993 4.7211C22.2268 4.46605 22.5244 4.34362 22.8857 4.35382C23.247 4.36487 23.5552 4.4873 23.8103 4.7211C24.0653 4.97615 24.1929 5.28434 24.1929 5.64567C24.1929 6.00699 24.0653 6.30456 23.8103 6.53836L22.4394 7.87739C22.1843 8.11119 21.8868 8.22808 21.5467 8.22808C21.2066 8.22808 20.909 8.11119 20.654 7.87739ZM4.87256 23.6588C4.6175 23.4038 4.48998 23.0956 4.48998 22.7343C4.48998 22.3729 4.6175 22.0754 4.87256 21.8416L6.24347 20.5025C6.49852 20.2687 6.80161 20.1518 7.15274 20.1518C7.50301 20.1518 7.79505 20.2687 8.02885 20.5025C8.2839 20.7363 8.40632 21.0288 8.39612 21.3799C8.38507 21.7302 8.26264 22.0329 8.02885 22.2879L6.68981 23.6588C6.45601 23.9139 6.15845 24.0359 5.79713 24.0248C5.4358 24.0146 5.12761 23.8926 4.87256 23.6588Z" fill="white"/>
</svg>
